<mxfile host="app.diagrams.net" agent="Mozilla/5.0 (Windows NT 10.0; Win64; x64) AppleWebKit/537.36 (KHTML, like Gecko) Chrome/134.0.0.0 Safari/537.36" version="25.0.3">
  <diagram name="Page-1" id="Xt_7VfWUD9vqBKjHiNLk">
    <mxGraphModel dx="2045" dy="743" grid="1" gridSize="10" guides="1" tooltips="1" connect="1" arrows="1" fold="1" page="1" pageScale="1" pageWidth="850" pageHeight="1100" math="0" shadow="0">
      <root>
        <mxCell id="0" />
        <mxCell id="1" parent="0" />
        <mxCell id="JCj6mYnm0wrspUGSUb6V-1" value="Microcontroller with built-in BLE Radio&lt;div&gt;(nRF52840)&lt;/div&gt;" style="rounded=0;whiteSpace=wrap;html=1;" vertex="1" parent="1">
          <mxGeometry x="320" y="160" width="280" height="80" as="geometry" />
        </mxCell>
        <mxCell id="JCj6mYnm0wrspUGSUb6V-2" value="Power Management" style="rounded=0;whiteSpace=wrap;html=1;fillColor=#f8cecc;strokeColor=#b85450;" vertex="1" parent="1">
          <mxGeometry x="320" y="40" width="120" height="60" as="geometry" />
        </mxCell>
        <mxCell id="JCj6mYnm0wrspUGSUb6V-3" value="USB&lt;div&gt;Module&lt;/div&gt;" style="rounded=0;whiteSpace=wrap;html=1;fillColor=#ffe6cc;strokeColor=#d79b00;" vertex="1" parent="1">
          <mxGeometry x="480" y="40" width="120" height="60" as="geometry" />
        </mxCell>
        <mxCell id="JCj6mYnm0wrspUGSUb6V-4" value="SD card" style="rounded=0;whiteSpace=wrap;html=1;fillColor=#fff2cc;strokeColor=#d6b656;" vertex="1" parent="1">
          <mxGeometry x="480" y="300" width="120" height="60" as="geometry" />
        </mxCell>
        <mxCell id="JCj6mYnm0wrspUGSUb6V-5" value="Analog Front End&lt;div&gt;(ADPD4101)&lt;/div&gt;" style="rounded=0;whiteSpace=wrap;html=1;fillColor=#dae8fc;strokeColor=#6c8ebf;" vertex="1" parent="1">
          <mxGeometry x="140" y="120" width="120" height="160" as="geometry" />
        </mxCell>
        <mxCell id="JCj6mYnm0wrspUGSUb6V-6" value="&lt;div&gt;Acceleration Sensor (ADXL363)&lt;/div&gt;" style="rounded=0;whiteSpace=wrap;html=1;fillColor=#dae8fc;strokeColor=#6c8ebf;" vertex="1" parent="1">
          <mxGeometry x="320" y="300" width="120" height="60" as="geometry" />
        </mxCell>
        <mxCell id="JCj6mYnm0wrspUGSUb6V-7" value="" style="shape=singleArrow;direction=west;whiteSpace=wrap;html=1;fillColor=#f8cecc;strokeColor=#b85450;" vertex="1" parent="1">
          <mxGeometry x="440" y="60" width="40" height="20" as="geometry" />
        </mxCell>
        <mxCell id="JCj6mYnm0wrspUGSUb6V-8" value="" style="shape=singleArrow;direction=west;whiteSpace=wrap;html=1;rotation=-90;fillColor=#f8cecc;strokeColor=#b85450;" vertex="1" parent="1">
          <mxGeometry x="350" y="120" width="60" height="20" as="geometry" />
        </mxCell>
        <mxCell id="JCj6mYnm0wrspUGSUb6V-15" value="" style="shape=doubleArrow;whiteSpace=wrap;html=1;fillColor=#dae8fc;strokeColor=#6c8ebf;" vertex="1" parent="1">
          <mxGeometry x="260" y="190" width="60" height="20" as="geometry" />
        </mxCell>
        <mxCell id="JCj6mYnm0wrspUGSUb6V-32" value="" style="group;fillColor=#dae8fc;strokeColor=#6c8ebf;strokeWidth=1;rounded=1;" vertex="1" connectable="0" parent="1">
          <mxGeometry x="150" y="320" width="100" height="75" as="geometry" />
        </mxCell>
        <mxCell id="JCj6mYnm0wrspUGSUb6V-24" value="ECG" style="rounded=1;whiteSpace=wrap;html=1;fillColor=none;verticalAlign=bottom;strokeColor=none;" vertex="1" parent="JCj6mYnm0wrspUGSUb6V-32">
          <mxGeometry width="100" height="75" as="geometry" />
        </mxCell>
        <mxCell id="JCj6mYnm0wrspUGSUb6V-22" value="ECG Electrodes" style="rounded=1;whiteSpace=wrap;html=1;fillColor=#d5e8d4;strokeColor=#82b366;" vertex="1" parent="JCj6mYnm0wrspUGSUb6V-32">
          <mxGeometry x="10" y="5" width="80" height="45" as="geometry" />
        </mxCell>
        <mxCell id="JCj6mYnm0wrspUGSUb6V-35" value="" style="group" vertex="1" connectable="0" parent="1">
          <mxGeometry x="-20" y="120" width="100" height="160" as="geometry" />
        </mxCell>
        <mxCell id="JCj6mYnm0wrspUGSUb6V-21" value="PPG" style="rounded=1;whiteSpace=wrap;html=1;fillColor=#dae8fc;verticalAlign=bottom;strokeColor=#6c8ebf;" vertex="1" parent="JCj6mYnm0wrspUGSUb6V-35">
          <mxGeometry width="100" height="160" as="geometry" />
        </mxCell>
        <mxCell id="JCj6mYnm0wrspUGSUb6V-18" value="LED&lt;div&gt;(Green, Red, IR)&lt;/div&gt;" style="rounded=1;whiteSpace=wrap;html=1;fillColor=#d5e8d4;strokeColor=#82b366;" vertex="1" parent="JCj6mYnm0wrspUGSUb6V-35">
          <mxGeometry x="10" y="7.2727272727272725" width="80" height="58.18181818181818" as="geometry" />
        </mxCell>
        <mxCell id="JCj6mYnm0wrspUGSUb6V-20" value="Photodetector" style="rounded=1;whiteSpace=wrap;html=1;fillColor=#d5e8d4;strokeColor=#82b366;" vertex="1" parent="JCj6mYnm0wrspUGSUb6V-35">
          <mxGeometry x="10" y="77.57575757575756" width="80" height="58.18181818181818" as="geometry" />
        </mxCell>
        <mxCell id="JCj6mYnm0wrspUGSUb6V-39" value="&lt;div&gt;Battery&lt;/div&gt;" style="rounded=0;whiteSpace=wrap;html=1;fillColor=#f8cecc;strokeColor=#b85450;" vertex="1" parent="1">
          <mxGeometry x="140" y="40" width="120" height="60" as="geometry" />
        </mxCell>
        <mxCell id="JCj6mYnm0wrspUGSUb6V-42" value="" style="shape=doubleArrow;whiteSpace=wrap;html=1;rotation=90;fillColor=#fff2cc;strokeColor=#d6b656;" vertex="1" parent="1">
          <mxGeometry x="510" y="120" width="60" height="20" as="geometry" />
        </mxCell>
        <mxCell id="JCj6mYnm0wrspUGSUb6V-43" value="" style="shape=doubleArrow;whiteSpace=wrap;html=1;rotation=90;fillColor=#dae8fc;strokeColor=#6c8ebf;" vertex="1" parent="1">
          <mxGeometry x="180" y="290" width="40" height="20" as="geometry" />
        </mxCell>
        <mxCell id="JCj6mYnm0wrspUGSUb6V-47" value="" style="shape=doubleArrow;whiteSpace=wrap;html=1;rotation=90;fillColor=#fff2cc;strokeColor=#d6b656;" vertex="1" parent="1">
          <mxGeometry x="510" y="260" width="60" height="20" as="geometry" />
        </mxCell>
        <mxCell id="JCj6mYnm0wrspUGSUb6V-51" value="" style="shape=doubleArrow;whiteSpace=wrap;html=1;fillColor=#f8cecc;strokeColor=#b85450;" vertex="1" parent="1">
          <mxGeometry x="260" y="60" width="60" height="20" as="geometry" />
        </mxCell>
        <mxCell id="JCj6mYnm0wrspUGSUb6V-69" value="" style="group" vertex="1" connectable="0" parent="1">
          <mxGeometry x="-20" y="300" width="140" height="100" as="geometry" />
        </mxCell>
        <mxCell id="JCj6mYnm0wrspUGSUb6V-58" value="Sensor" style="rounded=0;whiteSpace=wrap;html=1;fillColor=#dae8fc;strokeColor=#6c8ebf;" vertex="1" parent="JCj6mYnm0wrspUGSUb6V-69">
          <mxGeometry x="10" y="10" width="120" height="22" as="geometry" />
        </mxCell>
        <mxCell id="JCj6mYnm0wrspUGSUb6V-59" value="Power" style="rounded=0;whiteSpace=wrap;html=1;fillColor=#f8cecc;strokeColor=#b85450;" vertex="1" parent="JCj6mYnm0wrspUGSUb6V-69">
          <mxGeometry x="10" y="40" width="120" height="20" as="geometry" />
        </mxCell>
        <mxCell id="JCj6mYnm0wrspUGSUb6V-60" value="Data" style="rounded=0;whiteSpace=wrap;html=1;fillColor=#fff2cc;strokeColor=#d6b656;" vertex="1" parent="JCj6mYnm0wrspUGSUb6V-69">
          <mxGeometry x="10" y="70" width="120" height="20" as="geometry" />
        </mxCell>
        <mxCell id="JCj6mYnm0wrspUGSUb6V-62" value="" style="rounded=1;whiteSpace=wrap;html=1;fillColor=none;dashed=1;" vertex="1" parent="JCj6mYnm0wrspUGSUb6V-69">
          <mxGeometry width="140" height="100" as="geometry" />
        </mxCell>
        <mxCell id="JCj6mYnm0wrspUGSUb6V-75" value="" style="shape=doubleArrow;whiteSpace=wrap;html=1;fillColor=#dae8fc;strokeColor=#6c8ebf;" vertex="1" parent="1">
          <mxGeometry x="80" y="190" width="60" height="20" as="geometry" />
        </mxCell>
        <mxCell id="JCj6mYnm0wrspUGSUb6V-76" value="" style="shape=doubleArrow;whiteSpace=wrap;html=1;rotation=90;fillColor=#dae8fc;strokeColor=#6c8ebf;" vertex="1" parent="1">
          <mxGeometry x="350" y="260" width="60" height="20" as="geometry" />
        </mxCell>
        <mxCell id="JCj6mYnm0wrspUGSUb6V-192" value="Command" style="swimlane;fontStyle=1;childLayout=stackLayout;horizontal=1;startSize=26;fillColor=none;horizontalStack=0;resizeParent=1;resizeParentMax=0;resizeLast=0;collapsible=1;marginBottom=0;whiteSpace=wrap;html=1;" vertex="1" parent="1">
          <mxGeometry x="-680" y="600" width="280" height="242" as="geometry" />
        </mxCell>
        <mxCell id="JCj6mYnm0wrspUGSUb6V-193" value="&lt;b&gt;Stop Measurement: 0x00&lt;/b&gt;" style="text;strokeColor=default;fillColor=none;align=left;verticalAlign=top;spacingLeft=4;spacingRight=4;overflow=hidden;rotatable=0;points=[[0,0.5],[1,0.5]];portConstraint=eastwest;whiteSpace=wrap;html=1;" vertex="1" parent="JCj6mYnm0wrspUGSUb6V-192">
          <mxGeometry y="26" width="280" height="26" as="geometry" />
        </mxCell>
        <mxCell id="JCj6mYnm0wrspUGSUb6V-194" value="&lt;b&gt;Start Measurement: 0x01&lt;i&gt;aabbccdd&lt;/i&gt;&lt;/b&gt;&lt;div&gt;&lt;ul&gt;&lt;li&gt;&lt;span style=&quot;background-color: initial;&quot;&gt;&lt;b&gt;&lt;i&gt;aabbccdd&lt;/i&gt;: &lt;/b&gt;Unix Time Stamp&lt;/span&gt;&lt;/li&gt;&lt;/ul&gt;&lt;/div&gt;" style="text;strokeColor=default;fillColor=none;align=left;verticalAlign=top;spacingLeft=4;spacingRight=4;overflow=hidden;rotatable=0;points=[[0,0.5],[1,0.5]];portConstraint=eastwest;whiteSpace=wrap;html=1;" vertex="1" parent="JCj6mYnm0wrspUGSUb6V-192">
          <mxGeometry y="52" width="280" height="58" as="geometry" />
        </mxCell>
        <mxCell id="JCj6mYnm0wrspUGSUb6V-195" value="&lt;b&gt;Configure Sensor: 0x02&lt;i&gt;ss&lt;/i&gt;&lt;/b&gt;&lt;div&gt;&lt;ul&gt;&lt;li&gt;&lt;b&gt;&lt;i&gt;ss&lt;/i&gt;&lt;/b&gt;: 0x01 for green wavelength&lt;/li&gt;&lt;li&gt;&lt;b&gt;&lt;i&gt;ss&lt;/i&gt;&lt;/b&gt;: 0x02 for all wavelengths&lt;/li&gt;&lt;/ul&gt;&lt;/div&gt;" style="text;strokeColor=default;fillColor=none;align=left;verticalAlign=top;spacingLeft=4;spacingRight=4;overflow=hidden;rotatable=0;points=[[0,0.5],[1,0.5]];portConstraint=eastwest;whiteSpace=wrap;html=1;" vertex="1" parent="JCj6mYnm0wrspUGSUb6V-192">
          <mxGeometry y="110" width="280" height="80" as="geometry" />
        </mxCell>
        <mxCell id="JCj6mYnm0wrspUGSUb6V-196" value="&lt;b&gt;Start Monitoring Data: 0x0304&lt;/b&gt;" style="text;strokeColor=default;fillColor=none;align=left;verticalAlign=top;spacingLeft=4;spacingRight=4;overflow=hidden;rotatable=0;points=[[0,0.5],[1,0.5]];portConstraint=eastwest;whiteSpace=wrap;html=1;" vertex="1" parent="JCj6mYnm0wrspUGSUb6V-192">
          <mxGeometry y="190" width="280" height="26" as="geometry" />
        </mxCell>
        <mxCell id="JCj6mYnm0wrspUGSUb6V-224" value="&lt;b&gt;Stop Monitoring Data: 0x04&lt;/b&gt;" style="text;strokeColor=default;fillColor=none;align=left;verticalAlign=top;spacingLeft=4;spacingRight=4;overflow=hidden;rotatable=0;points=[[0,0.5],[1,0.5]];portConstraint=eastwest;whiteSpace=wrap;html=1;" vertex="1" parent="JCj6mYnm0wrspUGSUb6V-192">
          <mxGeometry y="216" width="280" height="26" as="geometry" />
        </mxCell>
        <mxCell id="JCj6mYnm0wrspUGSUb6V-199" value="Acceleration Data Struct" style="swimlane;fontStyle=1;childLayout=stackLayout;horizontal=1;startSize=26;fillColor=none;horizontalStack=0;resizeParent=1;resizeParentMax=0;resizeLast=0;collapsible=1;marginBottom=0;whiteSpace=wrap;html=1;" vertex="1" parent="1">
          <mxGeometry x="-680" y="860" width="280" height="160" as="geometry" />
        </mxCell>
        <mxCell id="JCj6mYnm0wrspUGSUb6V-200" value="+ TimeStamp: uint32_t" style="text;strokeColor=none;fillColor=none;align=left;verticalAlign=top;spacingLeft=4;spacingRight=4;overflow=hidden;rotatable=0;points=[[0,0.5],[1,0.5]];portConstraint=eastwest;whiteSpace=wrap;html=1;" vertex="1" parent="JCj6mYnm0wrspUGSUb6V-199">
          <mxGeometry y="26" width="280" height="24" as="geometry" />
        </mxCell>
        <mxCell id="JCj6mYnm0wrspUGSUb6V-201" value="+ DataType: uint8_t" style="text;strokeColor=none;fillColor=none;align=left;verticalAlign=top;spacingLeft=4;spacingRight=4;overflow=hidden;rotatable=0;points=[[0,0.5],[1,0.5]];portConstraint=eastwest;whiteSpace=wrap;html=1;" vertex="1" parent="JCj6mYnm0wrspUGSUb6V-199">
          <mxGeometry y="50" width="280" height="24" as="geometry" />
        </mxCell>
        <mxCell id="JCj6mYnm0wrspUGSUb6V-202" value="+ AccelerationData: AccelerationStruct[25]&lt;div&gt;&lt;span style=&quot;white-space: pre;&quot;&gt;&#x9;&lt;/span&gt;- AccelerationStruct:&amp;nbsp;&lt;/div&gt;&lt;div&gt;&lt;span style=&quot;white-space: pre;&quot;&gt;&#x9;&lt;/span&gt;&lt;span style=&quot;white-space: pre;&quot;&gt;&#x9;&lt;/span&gt;int16_t AccX,&lt;/div&gt;&lt;div&gt;&lt;span style=&quot;white-space: pre;&quot;&gt;&#x9;&lt;/span&gt;&lt;span style=&quot;white-space: pre;&quot;&gt;&#x9;&lt;/span&gt;int16_t AccY,&lt;/div&gt;&lt;div&gt;&lt;span style=&quot;white-space: pre;&quot;&gt;&#x9;&lt;/span&gt;&lt;span style=&quot;white-space: pre;&quot;&gt;&#x9;&lt;/span&gt;&lt;span style=&quot;background-color: initial;&quot;&gt;int16_t AccZ&lt;/span&gt;&lt;br&gt;&lt;/div&gt;" style="text;strokeColor=none;fillColor=none;align=left;verticalAlign=top;spacingLeft=4;spacingRight=4;overflow=hidden;rotatable=0;points=[[0,0.5],[1,0.5]];portConstraint=eastwest;whiteSpace=wrap;html=1;" vertex="1" parent="JCj6mYnm0wrspUGSUb6V-199">
          <mxGeometry y="74" width="280" height="86" as="geometry" />
        </mxCell>
        <mxCell id="JCj6mYnm0wrspUGSUb6V-203" value="PPG Green Data Struct" style="swimlane;fontStyle=1;childLayout=stackLayout;horizontal=1;startSize=26;fillColor=none;horizontalStack=0;resizeParent=1;resizeParentMax=0;resizeLast=0;collapsible=1;marginBottom=0;whiteSpace=wrap;html=1;" vertex="1" parent="1">
          <mxGeometry x="-360" y="750" width="280" height="98" as="geometry" />
        </mxCell>
        <mxCell id="JCj6mYnm0wrspUGSUb6V-204" value="+ TimeStamp: uint32_t" style="text;strokeColor=none;fillColor=none;align=left;verticalAlign=top;spacingLeft=4;spacingRight=4;overflow=hidden;rotatable=0;points=[[0,0.5],[1,0.5]];portConstraint=eastwest;whiteSpace=wrap;html=1;" vertex="1" parent="JCj6mYnm0wrspUGSUb6V-203">
          <mxGeometry y="26" width="280" height="24" as="geometry" />
        </mxCell>
        <mxCell id="JCj6mYnm0wrspUGSUb6V-205" value="+ DataType: uint8_t" style="text;strokeColor=none;fillColor=none;align=left;verticalAlign=top;spacingLeft=4;spacingRight=4;overflow=hidden;rotatable=0;points=[[0,0.5],[1,0.5]];portConstraint=eastwest;whiteSpace=wrap;html=1;" vertex="1" parent="JCj6mYnm0wrspUGSUb6V-203">
          <mxGeometry y="50" width="280" height="24" as="geometry" />
        </mxCell>
        <mxCell id="JCj6mYnm0wrspUGSUb6V-206" value="+ PPG Green: uint32_t [20]" style="text;strokeColor=none;fillColor=none;align=left;verticalAlign=top;spacingLeft=4;spacingRight=4;overflow=hidden;rotatable=0;points=[[0,0.5],[1,0.5]];portConstraint=eastwest;whiteSpace=wrap;html=1;" vertex="1" parent="JCj6mYnm0wrspUGSUb6V-203">
          <mxGeometry y="74" width="280" height="24" as="geometry" />
        </mxCell>
        <mxCell id="JCj6mYnm0wrspUGSUb6V-207" value="PPG Red/IR Data Struct" style="swimlane;fontStyle=1;childLayout=stackLayout;horizontal=1;startSize=26;fillColor=none;horizontalStack=0;resizeParent=1;resizeParentMax=0;resizeLast=0;collapsible=1;marginBottom=0;whiteSpace=wrap;html=1;" vertex="1" parent="1">
          <mxGeometry x="-360" y="900" width="280" height="120" as="geometry" />
        </mxCell>
        <mxCell id="JCj6mYnm0wrspUGSUb6V-208" value="+ TimeStamp: uint32_t" style="text;strokeColor=none;fillColor=none;align=left;verticalAlign=middle;spacingLeft=4;spacingRight=4;overflow=hidden;rotatable=0;points=[[0,0.5],[1,0.5]];portConstraint=eastwest;whiteSpace=wrap;html=1;imageWidth=24;imageHeight=24;arcSize=12;" vertex="1" parent="JCj6mYnm0wrspUGSUb6V-207">
          <mxGeometry y="26" width="280" height="24" as="geometry" />
        </mxCell>
        <mxCell id="JCj6mYnm0wrspUGSUb6V-209" value="+ DataType: uint8_t" style="text;strokeColor=none;fillColor=none;align=left;verticalAlign=middle;spacingLeft=4;spacingRight=4;overflow=hidden;rotatable=0;points=[[0,0.5],[1,0.5]];portConstraint=eastwest;whiteSpace=wrap;html=1;imageWidth=24;" vertex="1" parent="JCj6mYnm0wrspUGSUb6V-207">
          <mxGeometry y="50" width="280" height="24" as="geometry" />
        </mxCell>
        <mxCell id="JCj6mYnm0wrspUGSUb6V-210" value="+ PPG Red: uint32_t [20]" style="text;strokeColor=none;fillColor=none;align=left;verticalAlign=middle;spacingLeft=4;spacingRight=4;overflow=hidden;rotatable=0;points=[[0,0.5],[1,0.5]];portConstraint=eastwest;whiteSpace=wrap;html=1;" vertex="1" parent="JCj6mYnm0wrspUGSUb6V-207">
          <mxGeometry y="74" width="280" height="24" as="geometry" />
        </mxCell>
        <mxCell id="JCj6mYnm0wrspUGSUb6V-211" value="+ PPG IR: uint32_t [20]&lt;div&gt;&lt;br&gt;&lt;/div&gt;" style="text;strokeColor=none;fillColor=none;align=left;verticalAlign=middle;spacingLeft=4;spacingRight=4;overflow=hidden;rotatable=0;points=[[0,0.5],[1,0.5]];portConstraint=eastwest;whiteSpace=wrap;html=1;" vertex="1" parent="JCj6mYnm0wrspUGSUb6V-207">
          <mxGeometry y="98" width="280" height="22" as="geometry" />
        </mxCell>
        <mxCell id="JCj6mYnm0wrspUGSUb6V-212" value="ECG Data Struct" style="swimlane;fontStyle=1;childLayout=stackLayout;horizontal=1;startSize=26;fillColor=none;horizontalStack=0;resizeParent=1;resizeParentMax=0;resizeLast=0;collapsible=1;marginBottom=0;whiteSpace=wrap;html=1;" vertex="1" parent="1">
          <mxGeometry x="-360" y="600" width="280" height="98" as="geometry" />
        </mxCell>
        <mxCell id="JCj6mYnm0wrspUGSUb6V-213" value="+ TimeStamp: uint32_t" style="text;strokeColor=none;fillColor=none;align=left;verticalAlign=top;spacingLeft=4;spacingRight=4;overflow=hidden;rotatable=0;points=[[0,0.5],[1,0.5]];portConstraint=eastwest;whiteSpace=wrap;html=1;" vertex="1" parent="JCj6mYnm0wrspUGSUb6V-212">
          <mxGeometry y="26" width="280" height="24" as="geometry" />
        </mxCell>
        <mxCell id="JCj6mYnm0wrspUGSUb6V-214" value="+ DataType: uint8_t" style="text;strokeColor=none;fillColor=none;align=left;verticalAlign=top;spacingLeft=4;spacingRight=4;overflow=hidden;rotatable=0;points=[[0,0.5],[1,0.5]];portConstraint=eastwest;whiteSpace=wrap;html=1;" vertex="1" parent="JCj6mYnm0wrspUGSUb6V-212">
          <mxGeometry y="50" width="280" height="24" as="geometry" />
        </mxCell>
        <mxCell id="JCj6mYnm0wrspUGSUb6V-215" value="+ ECG: uint32_t [20]" style="text;strokeColor=none;fillColor=none;align=left;verticalAlign=top;spacingLeft=4;spacingRight=4;overflow=hidden;rotatable=0;points=[[0,0.5],[1,0.5]];portConstraint=eastwest;whiteSpace=wrap;html=1;" vertex="1" parent="JCj6mYnm0wrspUGSUb6V-212">
          <mxGeometry y="74" width="280" height="24" as="geometry" />
        </mxCell>
        <mxCell id="JCj6mYnm0wrspUGSUb6V-216" value="" style="sketch=0;aspect=fixed;pointerEvents=1;shadow=0;dashed=0;html=1;strokeColor=none;labelPosition=center;verticalLabelPosition=bottom;verticalAlign=top;align=center;fillColor=#00188D;shape=mxgraph.mscae.enterprise.android_phone" vertex="1" parent="1">
          <mxGeometry x="675" y="147.5" width="63" height="105" as="geometry" />
        </mxCell>
        <mxCell id="JCj6mYnm0wrspUGSUb6V-217" value="" style="shape=doubleArrow;whiteSpace=wrap;html=1;rotation=-180;fillColor=#0050ef;strokeColor=#001DBC;fontColor=#ffffff;" vertex="1" parent="1">
          <mxGeometry x="600" y="190" width="75" height="20" as="geometry" />
        </mxCell>
        <mxCell id="JCj6mYnm0wrspUGSUb6V-219" value="" style="html=1;strokeWidth=1;shadow=0;dashed=0;shape=mxgraph.ios7.misc.bluetooth;fillColor=#007AFF;strokeColor=none;buttonText=;strokeColor2=#222222;fontColor=#222222;fontSize=8;verticalLabelPosition=bottom;verticalAlign=top;align=center;sketch=0;" vertex="1" parent="1">
          <mxGeometry x="628.75" y="172.5" width="17.5" height="17.5" as="geometry" />
        </mxCell>
        <mxCell id="JCj6mYnm0wrspUGSUb6V-221" value="SPI" style="text;html=1;align=center;verticalAlign=middle;whiteSpace=wrap;rounded=0;" vertex="1" parent="1">
          <mxGeometry x="526" y="255" width="60" height="30" as="geometry" />
        </mxCell>
        <mxCell id="JCj6mYnm0wrspUGSUb6V-222" value="SPI" style="text;html=1;align=center;verticalAlign=middle;whiteSpace=wrap;rounded=0;" vertex="1" parent="1">
          <mxGeometry x="365" y="255" width="60" height="30" as="geometry" />
        </mxCell>
        <mxCell id="JCj6mYnm0wrspUGSUb6V-223" value="I2C" style="text;html=1;align=center;verticalAlign=middle;whiteSpace=wrap;rounded=0;" vertex="1" parent="1">
          <mxGeometry x="260" y="173" width="60" height="30" as="geometry" />
        </mxCell>
      </root>
    </mxGraphModel>
  </diagram>
</mxfile>
